PathFileType	3	(X/Y/Z)	F:\ViconData\AntennenMessung\Messung1\Session1\ID21.trc
DataRate	CameraRate	NumFrames	NumMarkers	Units	OrigDataRate	OrigDataStartFrame	OrigNumFrames
120.0	120.0	4	70	mm	120.0	845	1126	
Frame#	Time	Ashort			Along			Atop			A4			Bshort			Blong			Btop			B4			Cshort			Clong			Ctop			C4			Dshort			Dlong			Dtop			D4			Eshort			Elong			Etop			E4			Fshort			Flong			Ftop			F4			Gshort			Glong			Gtop			G4			Hshort			Hlong			Htop			H4			I1			I2			I3			I4			I5			WandAshort			WandAlong			WandAtop			WandA4			WandA15			WandBshort			WandB4			WandB5			WandBtop			WandBlong			WandCshort			WandClong			WandCtop			WandC4			WandC5			Acenter			Aantenna			Bcenter			Bantenna			Ccenter			Cantenna			Dcenter			Dantenna			Ecenter			Eantenna			Fcenter			Fantenna			Gcenter			Gantenna			Hcenter			Hantenna			Icenter			Iantenna			
		X1	Y1	Z1	X2	Y2	Z2	X3	Y3	Z3	X4	Y4	Z4	X5	Y5	Z5	X6	Y6	Z6	X7	Y7	Z7	X8	Y8	Z8	X9	Y9	Z9	X10	Y10	Z10	X11	Y11	Z11	X12	Y12	Z12	X13	Y13	Z13	X14	Y14	Z14	X15	Y15	Z15	X16	Y16	Z16	X17	Y17	Z17	X18	Y18	Z18	X19	Y19	Z19	X20	Y20	Z20	X21	Y21	Z21	X22	Y22	Z22	X23	Y23	Z23	X24	Y24	Z24	X25	Y25	Z25	X26	Y26	Z26	X27	Y27	Z27	X28	Y28	Z28	X29	Y29	Z29	X30	Y30	Z30	X31	Y31	Z31	X32	Y32	Z32	X33	Y33	Z33	X34	Y34	Z34	X35	Y35	Z35	X36	Y36	Z36	X37	Y37	Z37	X38	Y38	Z38	X39	Y39	Z39	X40	Y40	Z40	X41	Y41	Z41	X42	Y42	Z42	X43	Y43	Z43	X44	Y44	Z44	X45	Y45	Z45	X46	Y46	Z46	X47	Y47	Z47	X48	Y48	Z48	X49	Y49	Z49	X50	Y50	Z50	X51	Y51	Z51	X52	Y52	Z52	X53	Y53	Z53	X54	Y54	Z54	X55	Y55	Z55	X56	Y56	Z56	X57	Y57	Z57	X58	Y58	Z58	X59	Y59	Z59	X60	Y60	Z60	X61	Y61	Z61	X62	Y62	Z62	X63	Y63	Z63	X64	Y64	Z64	X65	Y65	Z65	X66	Y66	Z66	X67	Y67	Z67	X68	Y68	Z68	X69	Y69	Z69	X70	Y70	Z70	
845	7.0333333	-1038.2596	214.56151	-1644.1664	-1109.3506	204.30434	-1599.3683	-1063.7573	173.10721	-1625.6844	-1054.2723	262.54068	-1635.1876	-1352.911	235.13547	1003.5649	-1281.3588	227.26862	1052.3723	-1322.6715	193.98117	1020.8201	-1284.7753	287.95929	1052.7875	814.03009	187.60672	1209.3732	892.37701	178.55632	1179.1803	844.4718	145.39539	1198.3292	860.8822	292.69739	1168.4661	1115.7168	209.56972	-1401.5282	1056.1298	194.26526	-1460.4796	1094.7288	161.96259	-1424.0159	1069.8629	238.7036	-1425.6981	-1204.5746	1685.9513	-1563.1685	-1129.1187	1688.3522	-1606.0641	-1173.188	1724.4562	-1581.9115	-1134.0514	1580.9941	-1603.9027	-1239.6809	1699.2341	1119.5883	-1308.5448	1699.3813	1069.3276	-1270.4634	1736.3534	1096.954	-1244.7124	1593.6788	1106.6614	988.83673	1664.2101	1162.2323	957.53455	1700.3218	1183.8809	922.98114	1661.9949	1215.0784	939.75397	1659.4	1159.9003	998.95459	1668.4861	-1579.5038	1058.6731	1669.9734	-1518.7286	1024.9271	1708.0693	-1551.2037	1059.2111	1672.1653	-1585.5294	-209.75406	1636.96	-265.3566	-216.72588	1638.4548	-181.29593	-213.49615	1674.4303	-228.38873	-244.90324	1635.4938	-231.28551	-164.49951	1640.4069	-225.37456																																														-1068.6742	210.17319	-1625.0005	-1073.8019	248.82805	-1624.2871	-1321.4131	231.67241	1025.0503	-1320.1198	270.40778	1029.3977	848.09094	183.6721	1196.2468	851.75684	222.44212	1194.1378	1088.5919	202.60291	-1428.3636	1082.8013	240.95178	-1432.4664	-1171.9003	1686.991	-1581.7433	-1170.5605	1648.0143	-1581.5684	-1270.5947	1699.3	1097.0255	-1270.733	1660.3004	1097.1008	953.29346	1705.2142	1186.8138	973.03595	1733.3632	1168.4052	1026.3368	1669.168	-1551.637	1027.749	1630.1959	-1552.0709	-212.87862	1637.6298	-227.68307	-212.2244	1598.6425	-226.93549
846	7.0416667	-1038.2385	214.54836	-1644.1477	-1109.3854	204.27391	-1599.3123	-1063.8215	173.09982	-1625.6422	-1054.1726	262.35995	-1634.9706	-1352.9858	234.88934	1003.4876	-1281.3585	227.22607	1052.4165	-1322.7109	194.08142	1020.8469	-1284.7566	287.8764	1052.8105	813.96832	187.62965	1209.4282	892.34821	178.55124	1179.167	844.55444	145.33327	1198.301	860.91534	292.57803	1168.3663	1115.7328	209.55305	-1401.511	1056.0835	194.28349	-1460.4934	1094.7029	161.88791	-1424.0098	1069.8777	238.7083	-1425.6989	-1204.5699	1685.9611	-1563.1575	-1129.1411	1688.329	-1606.0367	-1173.1899	1724.4564	-1581.8859	-1134.0449	1581.0201	-1603.9185	-1239.6925	1699.2584	1119.594	-1308.1487	1699.3162	1068.064	-1270.4548	1736.3269	1096.9445	-1244.8896	1593.8599	1106.1387	988.83795	1664.2224	1162.2224	957.53107	1700.2495	1183.9862	922.97809	1661.9677	1215.136	939.80542	1659.4167	1159.906	998.92694	1668.5027	-1579.5173	1058.6792	1669.9799	-1518.7268	1024.9323	1708.0714	-1551.2064	1059.2015	1672.1525	-1585.5292	-209.74629	1636.9696	-265.35431	-216.72015	1638.4528	-181.31461	-213.49506	1674.429	-228.39113	-244.96997	1635.5629	-231.33882	-164.50066	1640.4132	-225.37079																																														-1068.7258	210.14561	-1624.9352	-1073.8434	248.80136	-1624.1975	-1321.5266	231.52359	1024.9773	-1320.3011	270.26929	1029.2517	848.18927	183.66597	1196.2159	851.8656	222.435	1194.1072	1088.5809	202.60251	-1428.3591	1082.8143	240.9556	-1432.4562	-1171.9186	1686.986	-1581.7186	-1170.5963	1648.0087	-1581.545	-1270.2312	1699.2841	1096.606	-1269.9958	1660.2864	1096.2496	953.20227	1705.2311	1186.9954	972.91064	1733.4421	1168.6458	1026.3314	1669.1801	-1551.6367	1027.7334	1630.2076	-1552.0677	-212.87177	1637.6342	-227.69003	-212.21133	1598.6469	-226.94717
847	7.05	-1038.2557	214.56654	-1644.1454	-1109.3656	204.21016	-1599.3285	-1063.8511	173.05338	-1625.6407	-1054.2238	262.41864	-1635.0233	-1352.8682	235.06479	1003.5535	-1281.4243	227.21135	1052.4882	-1322.6664	194.00299	1020.8983	-1284.7408	287.93103	1052.7886	814.05536	187.56198	1209.5222	892.22961	178.74417	1179.0804	844.28534	145.58719	1198.3173	860.91193	292.5592	1168.4081	1115.7134	209.53705	-1401.5281	1056.1248	194.2451	-1460.4756	1094.6677	161.83847	-1423.9611	1069.8667	238.66904	-1425.6876	-1204.5718	1685.9697	-1563.151	-1129.1084	1688.3351	-1606.0388	-1173.2021	1724.4585	-1581.8904	-1134.0293	1581.0345	-1603.939	-1239.7042	1699.261	1119.5912	-1308.562	1699.4507	1069.2373	-1270.4552	1736.3207	1096.9485	-1244.6626	1593.7863	1106.6198	988.86359	1664.2463	1162.2441	957.46051	1700.3427	1183.8815	922.92114	1661.9498	1215.1876	939.78082	1659.4662	1159.8925	998.92743	1668.5046	-1579.5381	1058.6923	1669.9744	-1518.7316	1024.9355	1708.0562	-1551.1949	1059.2062	1672.2087	-1585.6313	-209.75743	1636.9751	-265.3584	-216.73491	1638.4629	-181.29251	-213.50163	1674.4246	-228.38301	-244.89827	1635.4915	-231.29955	-164.51035	1640.4233	-225.37195																																														-1068.7852	210.12022	-1624.9041	-1073.9304	248.77171	-1624.136	-1321.4106	231.60683	1025.0999	-1320.1171	270.34433	1029.4281	847.83167	183.75211	1196.3694	851.43542	222.53477	1194.39	1088.5775	202.5733	-1428.3719	1082.8436	240.92529	-1432.5248	-1171.9231	1686.993	-1581.7059	-1170.5924	1648.0161	-1581.5143	-1270.5957	1699.3461	1097.0011	-1270.7438	1660.3464	1097.0566	953.1759	1705.2675	1186.8336	972.85333	1733.4406	1168.3926	1026.3461	1669.1788	-1551.6415	1027.76	1630.207	-1552.0892	-212.88466	1637.6418	-227.68082	-212.23073	1598.6544	-226.93654
848	7.0583333	-1038.2504	214.60258	-1644.1783	-1109.3727	204.27779	-1599.3387	-1063.9912	172.58745	-1625.3782	-1054.2181	262.40973	-1635.0327	-1352.9907	235.02174	1003.5579	-1281.397	227.24448	1052.3713	-1322.6444	194.06215	1020.8465	-1284.7845	287.89462	1052.8489	813.99799	187.58293	1209.4375	892.7287	179.14273	1178.7214	844.47278	145.39273	1198.2775	860.97461	292.67911	1168.5453	1115.7325	209.59299	-1401.5326	1056.0302	194.08159	-1460.3826	1094.7312	161.93777	-1424.0393	1069.8536	238.68651	-1425.6942	-1204.5684	1685.9678	-1563.1519	-1129.1136	1688.3052	-1606.0165	-1173.1791	1724.455	-1581.9077	-1134.0388	1581.0321	-1603.9274	-1239.6925	1699.2416	1119.5902	-1308.4994	1699.3918	1069.3966	-1270.469	1736.3461	1096.9508	-1244.9705	1593.605	1106.2781	988.8631	1664.2262	1162.2393	957.45374	1700.327	1183.889	922.9671	1661.9785	1215.1532	939.79169	1659.4171	1159.8815	998.94348	1668.5085	-1579.5344	1058.6865	1669.9738	-1518.7217	1024.9373	1708.0621	-1551.1909	1059.2051	1672.1648	-1585.5287	-209.74336	1636.9696	-265.36777	-216.7415	1638.4877	-181.28987	-213.50549	1674.434	-228.37567	-244.97946	1635.5685	-231.3261	-164.49513	1640.4292	-225.40189																																														-1069.0514	210.1312	-1624.7595	-1074.2601	248.77655	-1624.1229	-1321.4443	231.59485	1025.0667	-1320.2061	270.33109	1029.4219	847.81384	183.95773	1196.2444	851.17542	222.75871	1194.199	1088.4819	202.51294	-1428.394	1082.5784	240.84338	-1432.5079	-1171.9044	1686.9795	-1581.7076	-1170.5789	1648.0027	-1581.4996	-1270.6115	1699.309	1097.0352	-1270.7615	1660.3093	1097.1241	953.17639	1705.2432	1186.837	972.85016	1733.4189	1168.3964	1026.3475	1669.1805	-1551.6395	1027.7611	1630.2087	-1552.0894	-212.88196	1637.6504	-227.65956	-212.22108	1598.6633	-226.90056
